# xmcd
#
# Track frame offsets: 
#        150
#        8872
#        32037
#        53207
#        68690
#        83087
#        118472
#        138572
#        161077
#        190175
#        207600
#        257860
#        273552
#
# Disc length: 3855 seconds
#
# Revision: 4
# Processed by: cddbd v1.5.2PL0 Copyright (c) Steve Scherf et al.
# Submitted via: ExactAudioCopy v0.95b3
#
DISCID=c50f0d0d
DTITLE=B.B. King - Live at San Quentin
DYEAR=1900
DGENRE=Blues
TTITLE0=Introduction
TTITLE1=Let the Good Times Roll
TTITLE2=Every Day I Have the Blues
TTITLE3=Whole Lotta Loving
TTITLE4=Sweet Little Angel
TTITLE5=Never Make a Move Too Soon
TTITLE6=Into the Night
TTITLE7=Ain't Nobody's Business
TTITLE8=Thrill is Gone
TTITLE9=Peace to the World
TTITLE10=Nobody Loves Me But My Mother
TTITLE11=Sweet Sixteen
TTITLE12=Rock Me Baby
EXTD=
EXTT0=
EXTT1=
EXTT2=
EXTT3=
EXTT4=
EXTT5=
EXTT6=
EXTT7=
EXTT8=
EXTT9=
EXTT10=
EXTT11=
EXTT12=
PLAYORDER=
